<svg width="82" height="9" viewBox="0 0 82 9" fill="none"
    xmlns="http://www.w3.org/2000/svg">
    <path fill-rule="evenodd" clip-rule="evenodd" d="M45.7167 0C46.5928 0 47.3638 0.147546 48.0296 0.442637C48.8094 0.798483 49.3569 1.39301 49.6723 2.2262C49.9176 2.87714 50.0403 3.64091 50.0403 4.5175C50.0403 5.40278 49.8914 6.17088 49.5935 6.82182C49.2168 7.59426 48.6385 8.13671 47.8588 8.44916C47.2806 8.67482 46.6147 8.78765 45.8613 8.78765C44.8713 8.78765 44.0127 8.60539 43.2856 8.24086C42.6723 7.93709 42.2036 7.45974 41.8794 6.8088C41.5553 6.15786 41.3932 5.36806 41.3932 4.43939C41.3932 2.78167 41.8093 1.60131 42.6416 0.898293C43.3425 0.30811 44.3675 0.00867916 45.7167 0ZM45.7299 1.4581C44.8713 1.4581 44.258 1.73583 43.8901 2.2913C43.5922 2.72526 43.4433 3.42393 43.4433 4.38732C43.4433 5.40278 43.6272 6.14919 43.9952 6.62654C44.3632 7.09521 44.9458 7.32955 45.743 7.32955C46.514 7.32955 47.0813 7.09087 47.4449 6.61352C47.8084 6.13617 47.9902 5.39844 47.9902 4.40033C47.9902 3.48902 47.8413 2.79469 47.5434 2.31734C47.2017 1.75319 46.5972 1.46678 45.7299 1.4581ZM0.333526 0.0517578L3.21151 4.34794L0.228394 8.73526H2.44931L4.34168 5.75397L6.27348 8.73526H8.46811L5.49813 4.34794L8.46811 0.0517578H6.20778L4.34168 2.91588L2.62015 0.0517578H0.333526ZM13.9626 0.0517578L10.3356 8.73526H12.5171L13.3713 6.73037H16.6961L17.5503 8.73526H19.7317L16.1047 0.0517578H13.9626ZM13.7918 5.18114L15.0402 2.14778L16.2887 5.18114H13.7918ZM29.0987 7.18603V8.73526H26.0368C25.4585 8.73526 25.0161 8.70488 24.7095 8.64413C23.6319 8.43583 22.8653 7.84131 22.4097 6.86056C22.1118 6.20094 21.9629 5.3851 21.9629 4.41304C21.9629 3.25003 22.1907 2.304 22.6462 1.57495C22.9792 1.04552 23.4238 0.659299 23.9801 0.416283C24.5364 0.173266 25.2526 0.0517578 26.1287 0.0517578H29.0987V1.60099H26.339C25.5067 1.60099 24.8978 1.82231 24.5123 2.26494C24.1882 2.62947 24.0261 3.28908 24.0261 4.24379C24.0261 5.52831 24.2758 6.37019 24.7752 6.76943C25.1256 7.04716 25.6732 7.18603 26.4179 7.18603H29.0987ZM38.8139 8.73526V7.18603H36.1331C35.3884 7.18603 34.8408 7.04716 34.4904 6.76943C33.991 6.37019 33.7413 5.52831 33.7413 4.24379C33.7413 3.28908 33.9034 2.62947 34.2276 2.26494C34.613 1.82231 35.2219 1.60099 36.0542 1.60099H38.8139V0.0517578H35.844C34.9679 0.0517578 34.2516 0.173266 33.6953 0.416283C33.139 0.659299 32.6944 1.04552 32.3615 1.57495C31.9059 2.304 31.6781 3.25003 31.6781 4.41304C31.6781 5.3851 31.827 6.20094 32.1249 6.86056C32.5805 7.84131 33.3471 8.43583 34.4247 8.64413C34.7313 8.70488 35.1737 8.73526 35.752 8.73526H38.8139ZM54.8538 5.25925V0.0517578H53.0009V5.29831C53.0009 5.98396 53.0622 6.51556 53.1848 6.89311C53.3075 7.27065 53.5309 7.61131 53.855 7.91508C54.4771 8.50526 55.4671 8.80035 56.825 8.80035C58.0954 8.80035 59.0766 8.50092 59.7687 7.90206C60.0666 7.63301 60.2878 7.27933 60.4324 6.84103C60.5769 6.40273 60.6492 5.8451 60.6492 5.16812V0.0517578H58.7831V5.25925C58.7831 5.88415 58.7218 6.31811 58.5991 6.56113C58.4765 6.80415 58.2596 6.99726 57.9486 7.14046C57.6376 7.28367 57.2718 7.35527 56.8513 7.35527C56.1942 7.35527 55.6817 7.17735 55.3138 6.8215C55.1473 6.6566 55.029 6.45915 54.9589 6.22915C54.8888 5.99915 54.8538 5.67585 54.8538 5.25925ZM65.8819 2.36909V8.73526H64.0946V0.0517578H66.4864L69.9689 6.52207V0.0517578H71.743V8.73526H69.4563L65.8819 2.36909ZM74.4436 1.60099H77.2296V8.73526H79.0957V1.60099H82V0.0517578H74.4436V1.60099Z" fill="#F5F1E9" style="fill:#F5F1E9;fill:color(display-p3 0.9608 0.9451 0.9137);fill-opacity:1;"/>
</svg>
